<svg xmlns="http://www.w3.org/2000/svg" width="38" height="38" viewBox="0 0 38 38">
  <metadata><?xpacket begin="﻿" id="W5M0MpCehiHzreSzNTczkc9d"?>
<x:xmpmeta xmlns:x="adobe:ns:meta/" x:xmptk="Adobe XMP Core 5.6-c138 79.159824, 2016/09/14-01:09:01        ">
   <rdf:RDF xmlns:rdf="http://www.w3.org/1999/02/22-rdf-syntax-ns#">
      <rdf:Description rdf:about=""/>
   </rdf:RDF>
</x:xmpmeta>
                                                                                                    
                                                                                                    
                                                                                                    
                                                                                                    
                                                                                                    
                                                                                                    
                                                                                                    
                                                                                                    
                                                                                                    
                                                                                                    
                                                                                                    
                                                                                                    
                                                                                                    
                                                                                                    
                                                                                                    
                                                                                                    
                                                                                                    
                                                                                                    
                                                                                                    
                                                                                                    
                           
<?xpacket end="w"?></metadata>
<defs>
    <style>
      .cls-1 {
        fill: #404041;
        fill-rule: evenodd;
      }
    </style>
  </defs>
  <path id="_7" data-name="7" class="cls-1" d="M1124.25,3503.44s-6.4,1.78-13.07,3.56h-2.41c-6.62-1.78-13.02-3.56-13.02-3.56-2.51-.82-4.75-2.13-4.75-4.76v-24.93a4.748,4.748,0,0,1,4.75-4.75s7.07,1.97,13.02,3.56c0.79,0,1.58.03,2.36,0,6.25-1.67,13.12-3.56,13.12-3.56a4.748,4.748,0,0,1,4.75,4.75v24.93C1129,3501.31,1126.69,3502.8,1124.25,3503.44Zm-28.5-32.07a2.386,2.386,0,0,0-2.38,2.38v24.93c0,1.32,1.03,2.01,2.38,2.38,0,0,6.58,1.82,13.06,3.56v-29.69Zm30.87,2.38a2.377,2.377,0,0,0-2.37-2.38l-13.06,3.56v29.67c6.6-1.74,13.06-3.54,13.06-3.54,1.27-.41,2.37-1.06,2.37-2.38v-24.93Z" transform="translate(-1091 -3469)"/>
</svg>
