<svg xmlns="http://www.w3.org/2000/svg" width="32" height="40">
  <defs>
    <style>
      .zc { fill: #404041; fill-rule: evenodd; }
    </style>
  </defs>
  <path id="_1" d="M27 40H5a5 5 0 0 1-5-5V5a5 5 0 0 1 5-5H22L32 10v25a5 5 0 0 1-5 5zM22.3 2.5v5a2.5 2.5 0 0 0 2.4 2.5h5zm7.3 10h-5a5 5 0 0 1-4.8-5v-5H5A2.5 2.5 0 0 0 2.4 5v30A2.5 2.5 0 0 0 5 37.5h22a2.5 2.5 0 0 0 2.5-2.5V12.5zm-6 17.5h-15a1.3 1.3 0 0 1 0-2.5h15a1.3 1.3 0 0 1 0 2.5zm0-7.5h-15a1.3 1.3 0 0 1 0-2.5h15a1.3 1.3 0 0 1 0 2.5z" data-name="1" class="zc"/>
</svg>