<svg xmlns="http://www.w3.org/2000/svg" width="40" height="40" viewBox="0 0 40 40">
  <metadata><?xpacket begin="﻿" id="W5M0MpCehiHzreSzNTczkc9d"?>
<x:xmpmeta xmlns:x="adobe:ns:meta/" x:xmptk="Adobe XMP Core 5.6-c138 79.159824, 2016/09/14-01:09:01        ">
   <rdf:RDF xmlns:rdf="http://www.w3.org/1999/02/22-rdf-syntax-ns#">
      <rdf:Description rdf:about=""/>
   </rdf:RDF>
</x:xmpmeta>
                                                                                                    
                                                                                                    
                                                                                                    
                                                                                                    
                                                                                                    
                                                                                                    
                                                                                                    
                                                                                                    
                                                                                                    
                                                                                                    
                                                                                                    
                                                                                                    
                                                                                                    
                                                                                                    
                                                                                                    
                                                                                                    
                                                                                                    
                                                                                                    
                                                                                                    
                                                                                                    
                           
<?xpacket end="w"?></metadata>
<defs>
    <style>
      .cls-1 {
        fill: #404041;
        fill-rule: evenodd;
      }
    </style>
  </defs>
  <path id="_7" data-name="7" class="cls-1" d="M834.75,3493h-7.5a1.25,1.25,0,0,1,0-2.5h7.5A1.25,1.25,0,0,1,834.75,3493Zm0-7.5h-10a1.25,1.25,0,0,1,0-2.5h10A1.25,1.25,0,0,1,834.75,3485.5Zm0-7.5h-10a1.25,1.25,0,0,1,0-2.5h10A1.25,1.25,0,0,1,834.75,3478Zm-11.25,17.5v5a7.5,7.5,0,0,1-7.5,7.5H803.5a7.5,7.5,0,0,1-7.5-7.5v-5a7.465,7.465,0,0,1,5.062-7.06,13.326,13.326,0,0,1-2.562-7.94c0-6.91,5.037-12.5,11.25-12.5s11.25,5.59,11.25,12.5a13.326,13.326,0,0,1-2.562,7.94A7.465,7.465,0,0,1,823.5,3495.5Zm-5-15c0-5.53-3.918-10-8.75-10s-8.75,4.47-8.75,10,3.917,10,8.75,10S818.5,3486.02,818.5,3480.5Zm2.5,15.62a5.753,5.753,0,0,0-4.72-5.46,10.281,10.281,0,0,1-13.06,0,5.753,5.753,0,0,0-4.72,5.46v3.75a5.9,5.9,0,0,0,6.136,5.63h10.228a5.9,5.9,0,0,0,6.136-5.63v-3.75Zm6.25,1.88h7.5a1.25,1.25,0,0,1,0,2.5h-7.5A1.25,1.25,0,0,1,827.25,3498Z" transform="translate(-796 -3468)"/>
</svg>
